<svg width="111" height="191" viewBox="0 0 111 191" fill="none" xmlns="http://www.w3.org/2000/svg">
<path d="M101.518 175.482L78.0296 177.4L76.4615 153.886L52.9735 155.804L51.4054 132.29L27.9174 134.208L26.3493 110.694L2.86125 112.611" stroke="#FC5252" stroke-width="8"/>
<path fill-rule="evenodd" clip-rule="evenodd" d="M104.861 175.482L104.21 167.509L84.7688 169.097L83.2007 145.583L59.7127 147.5L58.1446 123.986L34.6566 125.904L33.0885 102.39L5.55393 104.639L6.20501 112.612L25.6465 111.025L27.2146 134.539L50.7026 132.621L52.2707 156.135L75.7588 154.217L77.3268 177.731L104.861 175.482Z" stroke="#FC5252"/>
<path d="M14.5876 9.29218L14.1778 32.8549L37.744 32.9137L37.3343 56.4764L60.9004 56.5353L60.4907 80.098L84.0569 80.1569L83.6471 103.72" stroke="#381DDB" stroke-width="8"/>
<path fill-rule="evenodd" clip-rule="evenodd" d="M14.3731 5.95506L22.3718 6.09415L22.0327 25.5974L45.5989 25.6563L45.1891 49.219L68.7553 49.2779L68.3456 72.8406L91.9117 72.8995L91.4314 100.522L83.4326 100.382L83.7718 80.8791L60.2056 80.8202L60.6153 57.2576L37.0492 57.1987L37.4589 33.636L13.8927 33.5771L14.3731 5.95506Z" stroke="#381DDB"/>
</svg>
